<?xml version="1.0" standalone="no"?>
<!DOCTYPE svg PUBLIC "-//W3C//DTD SVG 20010904//EN"
 "http://www.w3.org/TR/2001/REC-SVG-20010904/DTD/svg10.dtd">
<svg version="1.0" xmlns="http://www.w3.org/2000/svg"
 width="16.000000pt" height="16.000000pt" viewBox="0 0 16.000000 16.000000"
 preserveAspectRatio="xMidYMid meet">
<metadata>
Created by potrace 1.11, written by Peter Selinger 2001-2013
</metadata>
<g transform="translate(0.000000,16.000000) scale(0.006154,-0.006154)"
fill="#000000" stroke="none">
<path d="M0 1300 l0 -1300 1300 0 1300 0 0 1300 0 1300 -1300 0 -1300 0 0
-1300z m2140 489 c36 -5 95 -20 133 -31 l67 -22 0 -113 c0 -75 -4 -113 -11
-113 -6 0 -24 9 -39 20 -16 11 -58 34 -93 51 -150 70 -338 37 -337 -58 1 -57
26 -72 185 -113 252 -64 328 -132 328 -294 1 -201 -162 -325 -426 -326 -86 0
-202 21 -284 51 l-53 20 0 115 c0 63 3 114 8 114 4 0 31 -16 61 -35 87 -55
172 -80 276 -80 72 0 97 4 124 20 62 37 63 112 2 148 -15 9 -76 28 -136 42
-140 33 -215 67 -264 120 -96 105 -93 274 7 374 103 102 261 141 452 110z
m-1675 -31 c3 -13 32 -156 66 -317 33 -162 61 -297 63 -298 2 -2 39 139 83
314 l79 318 122 3 c67 1 122 1 122 -1 0 -11 149 -630 153 -633 2 -2 34 140 72
316 l69 320 124 0 c95 0 123 -3 120 -12 -3 -7 -59 -226 -124 -486 l-119 -472
-134 2 -135 3 -75 293 c-48 185 -79 286 -83 275 -4 -10 -35 -126 -68 -258 -34
-132 -66 -257 -71 -277 l-10 -38 -133 0 -133 0 -116 463 c-65 254 -120 472
-123 485 -6 22 -6 22 120 22 122 0 126 -1 131 -22z"/>
</g>
</svg>
